<?xml version="1.0" encoding="utf-8"?>
<!-- Generator: Adobe Illustrator 27.2.0, SVG Export Plug-In . SVG Version: 6.00 Build 0)  -->
<svg version="1.1" id="Layer_2_00000006697750367144030870000004216736754873465268_"
	 xmlns="http://www.w3.org/2000/svg" xmlns:xlink="http://www.w3.org/1999/xlink" x="0px" y="0px" viewBox="0 0 545.9 357"
	 style="enable-background:new 0 0 545.9 357;" xml:space="preserve">
<style type="text/css">
	.st0{fill:#B4ACA1;}
</style>
<g>
	<path class="st0" d="M461.8,171.2c-0.8,0.2-1.7,0.4-2.4,0.6c-1.9-1.8-3.4-3.9-4.8-6.4c-1-2-1.7-3.5-2.3-5.6
		c-0.7-2.1-1.2-4.4-1.6-6.6c-1.3-8.3-0.8-17.5,1.3-25.6c0.6-2,1.2-4,2-6c0-0.1,0.4-1,0.5-1.2c0.2-0.4,0.4-0.8,0.6-1.2
		c0.4-0.8,0.9-1.5,1.4-2.3c0.7-1,0.6-2.3-0.1-3.2c1.1-1.1,1.3-3.3,0-4.4c-5.6-4.7-8.8-10.8-10.3-17.6c0.2-0.6,0.1-1.2-0.3-1.5
		c-1.8-10.3,0.4-21.6,4.8-30.9c2.3-4.8,5.1-9.2,8.7-13.2c0.9-0.8,1.2-2.1,0.9-3.2l0,0c0,0,0,0,0-0.1c0.4-1.5-0.5-3.5-2.1-3.9
		c-13.4-2.6-26.8-5.2-40.2-7.8c-16.4-3.1-32.7-6.1-49.1-9c-17.2-3.1-34.4-6.1-51.7-9c-16-2.7-32-5.3-48-7.7
		c-12.8-2-25.6-3.8-38.5-5.2c-0.4-0.1-0.7-0.1-1.1-0.1C229,0.1,228.5,0,228.1,0c-0.2,0-0.5,0.1-0.7,0.1c-0.2,0-0.4-0.1-0.6-0.1
		c-0.4-0.1-0.9,0.1-1.2,0.2c-20,1.5-40,3.2-59.9,5.4c-18.5,2-37.1,4.3-55.5,7c-9.6,1.3-19.2,2.8-28.7,4.3c-0.9,0.1-1.7,0.9-2,1.8
		c-6.1,0.9-11.9,3.1-16.8,6.8c-4.9,3.7-8.9,8.5-11.7,14c-5.5,10.9-6.8,24.1-3.4,35.8c1.5,5,3.9,9.7,7.1,13.8
		c-1.4-0.2-2.8-0.3-4.2-0.5c-3.1-0.3-6.2,0-9.2,1c-9.5,3.1-14.4,11.6-17.2,20.5c-4.6,14.1-5.2,33,8.7,42.1c2.3,1.5,5,2.6,7.6,3.4
		c-9.8,6.7-16.1,18-18.7,29.4c-3.4,14.8-1.2,31.2,7.5,43.8c4.2,6,9.6,11,15.9,14.6c-5.9,2.1-11.1,6.1-14.4,11.9
		c-4.6,8.1-4.8,18.3-1.7,27c1.9,5.3,4.9,10.2,8.9,14.2c0.2,0.2,0.4,0.4,0.7,0.6c0.2,0.9,0.9,1.8,2.1,2.1l0,0
		c31.3,10.1,63,18.8,95,26.5c32.8,7.9,65.9,14.9,99.1,21.2c16.6,3.2,33.3,6.2,50,9.1c0.2,0.1,0.4,0.1,0.6,0.1c2,0.4,3.9,0.7,5.9,1
		c1.3,0.2,2.7-0.2,3.4-1.3c0.6,1,1.8,1.7,3.4,1.3l0,0c22-5.9,43.9-12.2,65.7-19c21.7-6.7,43.2-13.8,64.7-21.3
		c10.3-3.6,20.5-7.3,30.6-11.1c1.3,0.6,3.1-0.1,3.9-1.3c0-0.1,0.1-0.1,0.1-0.1c0.2-0.1,0.3-0.1,0.5-0.2c1.6-0.6,2.6-2.1,2.1-3.9
		c-0.4-1.5-2.3-2.8-3.8-2.1c-0.6,0.2-1.1,0.4-1.7,0.6c-1.7-1.5-3.1-3.5-4.2-5.7c-1.3-2.7-2.4-6.6-2.8-9.6
		c-0.9-7.6,0.2-15.2,3.1-22.3c1.4-3.4,3.5-7,6-9.7c2.4-2.6-0.7-6.4-3.4-5.1c-0.1-0.7-0.3-1.3-0.9-2c-3.1-3.1-5.7-7.6-7.3-11.7
		c-1.9-4.9-3.1-10.4-3.6-15.2c-0.2-2.8-0.4-5.6-0.2-8.4c0.1-2.8,0.3-5.1,0.8-7.6c0.5-2.6,1.2-5.1,2-7.6c0.5-1.2,0.6-1.5,1.2-2.7
		c0.6-1.1,1.1-2.1,1.8-3.2c0.9-1.4,1.1-1.7,2.1-2.9c0.8-0.9,1.7-1.7,2.6-2.4c0.1-0.1,0.4-0.3,0.4-0.3c0.3-0.2,0.6-0.4,0.9-0.6
		c0.5-0.3,1-0.6,1.5-0.9c0.2-0.1,0.5-0.2,0.7-0.4c0.1-0.1,0.3-0.1,0.4-0.2c0.1,0,0.1-0.1,0.1-0.1c0.6-0.2,1.3-0.5,2-0.7
		c1.9-0.6,2.4-2.3,2.1-3.7C466.5,174,464.8,170.6,461.8,171.2z M452.3,173.2c-12.7,2.6-25.4,5-38.1,7.6
		c-24.2,4.9-48.3,9.9-72.3,15.5c-8.6,2-17.1,4-25.6,6.3c-0.1-0.1-0.1-0.2-0.1-0.3c-0.9-1.6-1.8-3.2-2.6-4.8
		c4.8-1.3,9.8-2.3,14.6-3.4c9.8-2.1,19.6-4.2,29.4-6.2c22.3-4.6,44.6-9.1,67.1-13c8.1-1.4,16.2-2.9,24.4-3.6c0.6-0.1,1-0.4,1.1-0.9
		C450.9,171.3,451.6,172.3,452.3,173.2z M451.1,246.3c-17.1,4.9-34,10.4-50.9,15.8c-22.3,7.2-44.6,14.4-67,21.2
		c-10.7,3.2-21.5,6.4-32.3,9.4c-0.6-1.8-1-3.6-1.5-5.4c5.7-1.8,11.4-3.3,17.1-4.9c11-3.1,22-6.1,33-9.2c13-3.6,25.9-7.2,38.9-10.8
		c12-3.4,24-6.7,36-10.1c8.1-2.3,16.1-4.6,24.1-7.1c0.5-0.1,0.9-0.3,1.4-0.4C450.3,245.2,450.7,245.8,451.1,246.3z M287.2,350
		c-1.4-0.2-2.8-0.5-4.2-0.7c-3.2-6.2-4.2-13.4-4-20.4c0.1-4.4,0.5-8.9,1.2-13.3c0.6-3.7,1.5-7.6,3.1-11c1.5-3.1,3.5-5.8,6.5-7.3
		c2,0.4,4,0.9,6,1.3c0.1,0,0.2,0.1,0.4,0.1c-5.7,7.9-10.6,16.9-12.2,26.7C282.4,333.8,283.6,342.3,287.2,350z M72.9,244.6
		c-2.9-3.5-4.5-7.9-5.6-12.4c-1.4-5.7-2.1-11.6-2.3-17.5c-0.3-11.7,1.7-23.5,5.7-34.6c2.3-6.2,5.3-12.1,9-17.7
		c2.4,0.4,4.8,0.8,7.2,1.2C75.4,184,71,207.9,74.1,231c0.7,4.9,1.7,9.7,3.1,14.5C75.8,245.2,74.3,244.9,72.9,244.6z M79.9,246.1
		c-6.3-21-5.7-43.8,1.5-64.6c2.1-6.1,4.8-11.9,8-17.4c3.2,0.6,6.4,1.1,9.7,1.7c12.7,2.2,25.3,4.4,37.9,6.7
		c13.9,2.5,27.8,5.1,41.7,7.6c13.8,2.6,27.6,5.1,41.4,7.8c8,1.5,16,3.1,24,4.6c-11.6,21.1-16.6,45.6-14.5,69.5
		c0.5,5.6,1.4,11.3,2.7,16.8c-12-2.6-24-5.1-36-7.7c-13.6-2.9-27.2-5.8-40.8-8.7c-13-2.8-26.1-5.6-39.1-8.4
		c-10.9-2.3-21.9-4.6-32.8-7C82.5,246.6,81.2,246.3,79.9,246.1z M235.5,279.4c-0.1,0-0.2-0.1-0.4-0.1c-5.4-22.2-4.2-45.8,3.2-67.5
		c2.2-6.4,4.9-12.5,8.1-18.3c0.1-0.2,0.2-0.4,0.2-0.6c1.9,0.4,3.7,0.7,5.6,1.1c-4.9,10.5-9.2,21.4-11.8,32.7
		c-2.5,10.8-3.5,22-2.8,33c0.4,6.8,1.4,13.7,2.8,20.4c0,0.1,0.1,0.2,0.1,0.2C238.8,280,237.1,279.7,235.5,279.4z M242.7,279.5
		c-2.3-11.3-3.4-22.9-2.6-34.4c0.7-10.8,3.2-21.4,6.8-31.7c2.2-6.4,4.9-12.7,7.8-18.8c0-0.1,0.1-0.1,0.1-0.2c1,0.2,2.1,0.4,3.1,0.6
		c9.8,1.9,19.6,3.8,29.3,5.7c3.5,0.7,6.9,1.4,10.4,2.1c-1.8,1.9-3.2,4.3-4.3,6.7c-2.5,5.6-4.3,11.7-5.7,17.7
		c-3.4,14.1-4.5,28.7-2.8,43.2c0.8,6.8,2.2,13.6,4.2,20.2c-6.8-1.5-13.7-2.9-20.5-4.4c-8.7-1.8-17.4-3.7-26.1-5.6
		C242.6,280.5,242.9,280,242.7,279.5z M304.6,125.4c-1.3-2.1-2.4-4.4-3.4-6.7c-3.7-8.9-4.8-18.7-3.7-28.3
		c1.2-10.4,5.4-20.5,12.1-28.6c1.7,0.3,3.3,0.6,5,0.9c-0.2,0.1-0.4,0.3-0.6,0.6l0,0c-6.4,8-11.1,17.4-12.6,27.6
		c-1.5,9.9-0.1,19.8,3.9,29c1.1,2.6,2.4,5,4,7.4c-0.6-0.1-1.2-0.2-1.7-0.3c-0.7-0.1-1.3-0.2-2-0.3
		C305.2,126.2,304.9,125.8,304.6,125.4z M446.5,53.6c-16.9,1.5-33.8,4.1-50.7,6.5c-22,3.1-43.9,6.2-65.8,9.9
		c-5,0.9-10.2,1.5-15.2,2.6c1.1-1.7,2.3-3.4,3.5-5c0.5-0.7,0.9-1.4,0.9-2.1c0.2,0,0.4,0,0.7-0.1l0,0c17.6-3.4,35.5-5.6,53.3-7.8
		c18.7-2.3,37.5-4.3,56.2-6.7c6.8-0.9,13.6-1.8,20.5-2.9C448.7,49.9,447.5,51.8,446.5,53.6z M443.3,60.6c-16.3,1.5-32.6,4-48.9,6.3
		c-22,3.1-43.9,6.2-65.8,9.9c-5.9,1-11.9,1.8-17.7,3.3c0.7-1.5,1.3-3,2.1-4.4c4.8-1.2,9.7-1.9,14.6-2.8c9.8-1.7,19.6-3.2,29.4-4.7
		c22.4-3.4,44.9-6.6,67.4-9.5c6.9-0.9,13.8-1.8,20.7-2.5C444.5,57.7,443.9,59.2,443.3,60.6z M450,111.8c-0.3-0.1-0.6-0.2-0.9-0.3
		h0.1c0.2,0,0.3-0.1,0.5-0.1C449.7,111.6,449.9,111.7,450,111.8z M292.9,237.3c-2.9,12.8-3.4,26.1-1.7,39.1c0.7,5.2,1.6,10.4,3,15.5
		c-0.9-0.2-1.7-0.4-2.6-0.6c-3.7-12.4-5.6-25.3-5.2-38.3c0.4-13.1,3.1-26.3,7.5-38.6c1.3-3.8,3.2-8.1,6.4-10.8
		c1.4,0.3,2.8,0.6,4.2,0.9c0.7,0.1,1.3,0.3,2,0.5c0.6,0.1,1.5,0.6,0.2,0c0.5,0.2,1,0.4,1.5,0.4c-0.3,0.3-0.5,0.7-0.6,1.1
		C300.2,215.1,295.4,226.2,292.9,237.3z M299.8,235.3c0.2,0.1,0.4,0,0.6-0.1l0,0c5.6-1.7,11.3-2.9,17-4.3c10.3-2.5,20.6-5,30.9-7.4
		c12.2-2.9,24.5-5.7,36.7-8.5c11.4-2.6,22.7-5.1,34.2-7.6c7.2-1.5,14.4-3.1,21.6-4.5c-0.2,1.8-0.4,3.7-0.6,5.6c-0.1,0-0.1,0-0.1,0
		c-7.2,1.2-14.4,2.8-21.6,4.3c-11.1,2.4-22.2,4.9-33.3,7.4c-12.3,2.8-24.6,5.6-36.8,8.5c-10.7,2.5-21.4,5.1-32.1,7.6
		c-5.9,1.5-11.9,2.9-17.9,4.5C298.9,238.9,299.3,237.1,299.8,235.3z M298,243.5c5.2-1.5,10.5-2.8,15.8-4c10.3-2.5,20.6-5,30.9-7.4
		c12.2-2.9,24.5-5.7,36.7-8.5c11.4-2.6,22.7-5.1,34.2-7.6c7.8-1.7,15.6-3.4,23.5-4.8c0.4-0.1,0.8-0.1,1.2-0.2
		c-0.1,5.8,0.7,11.6,2.1,17.2c-6.7,1.2-13.3,2.6-19.9,4.1c-11.4,2.5-22.8,5.1-34.2,7.7c-12.7,2.9-25.3,5.9-37.9,8.9
		c-11,2.6-22,5.3-33,8c-6.5,1.6-13.1,3.2-19.6,5c-0.4,0.1-0.7,0.2-1.1,0.3c-0.1,0.1-0.2,0.1-0.4,0.2c0-0.8,0-1.5,0-2.3
		c0-0.7,0-1.3,0.1-2c5.4-1.6,11-2.9,16.5-4.2c10.3-2.5,20.6-5,30.9-7.4c12.2-2.9,24.5-5.7,36.7-8.5c11.4-2.6,22.7-5.1,34.2-7.6
		c7.8-1.7,15.6-3.4,23.5-4.8c0.6-0.1,1.2-0.2,1.7-0.3c1.6-0.2,0.9-2.6-0.7-2.4c-7.2,1.2-14.4,2.8-21.6,4.3
		c-11.1,2.4-22.2,4.9-33.3,7.4c-12.3,2.8-24.6,5.6-36.8,8.5c-10.7,2.5-21.4,5.1-32.1,7.6c-6.3,1.5-12.7,3.1-19,4.8
		c0.1-1.5,0.2-2.9,0.3-4.3c4.8-1.3,9.8-2.5,14.7-3.7c10.3-2.5,20.6-5,30.9-7.4c12.2-2.9,24.5-5.7,36.7-8.5
		c11.4-2.6,22.7-5.1,34.2-7.6c7.8-1.7,15.6-3.4,23.5-4.8c0.6-0.1,1.2-0.2,1.7-0.3c1.6-0.2,0.9-2.6-0.7-2.4
		c-7.2,1.2-14.4,2.8-21.6,4.3c-11.1,2.4-22.2,4.9-33.3,7.4c-12.3,2.8-24.6,5.6-36.8,8.5c-10.7,2.5-21.4,5.1-32.1,7.6
		c-5.6,1.3-11.3,2.7-16.9,4.2C297.5,246.8,297.7,245.2,298,243.5z M298.1,280.8c5.4-1.6,10.9-3,16.4-4.5c10.9-2.9,21.7-5.7,32.6-8.6
		c13-3.4,25.9-6.7,38.9-10c12-3.1,24-6,36-8.9c7.5-1.8,15-3.6,22.6-5.1c-5.7,1.8-11.4,3.4-17.1,5c-11.6,3.4-23.3,6.6-35,9.8
		c-13,3.6-26,7.2-39,10.8c-11.4,3.2-22.8,6.3-34.2,9.5c-6.8,1.9-13.7,3.8-20.4,5.8C298.6,283.5,298.3,282.1,298.1,280.8z
		 M296.5,264.5c0.2,0.2,0.6,0.2,1,0.1l0,0c5.7-1.7,11.6-3.1,17.4-4.5c10.6-2.6,21.2-5.2,31.8-7.8c12.5-3,25.1-6,37.7-8.9
		c11.7-2.8,23.4-5.4,35.1-8c7.8-1.7,15.7-3.5,23.7-4.9c0.2,0.7,0.4,1.4,0.7,2.1c0.4,1.1,0.8,2.1,1.2,3.2c-7.2,1.2-14.3,2.8-21.4,4.3
		c-11.7,2.6-23.4,5.2-35,7.9c-13,3-25.9,6.1-38.9,9.1c-11.3,2.7-22.6,5.4-33.9,8.2c-6.4,1.6-12.7,3.1-19,4.8
		C296.7,268.4,296.6,266.5,296.5,264.5z M441.9,197.4c-0.2,1-0.4,1.9-0.6,2.9c-6.4,1.1-12.8,2.5-19.1,3.9
		c-11.1,2.4-22.2,4.9-33.3,7.4c-12.3,2.8-24.6,5.6-36.8,8.5c-10.7,2.5-21.4,5.1-32.1,7.6c-6.4,1.5-12.8,3.1-19.1,4.8
		c-0.1,0-0.1,0.1-0.2,0.1c0.6-1.9,1.3-3.8,2-5.7c5.1-1.5,10.3-2.7,15.5-3.9c10.3-2.5,20.6-5,30.9-7.4c12.2-2.9,24.5-5.7,36.7-8.5
		c11.4-2.6,22.7-5.1,34.2-7.6c7.5-1.7,15-3.3,22.6-4.6C442.3,195.7,442.1,196.6,441.9,197.4z M308.3,157.8c0.2,0.6,0.7,0.9,1.4,0.7
		l0,0c5.3-1.6,10.9-2.5,16.3-3.6c9.7-1.9,19.3-3.7,29-5.4c22.3-4,44.5-7.9,66.8-11.3c7.5-1.2,14.9-2.3,22.4-3.1
		c-0.1,1.1-0.2,2.2-0.3,3.3c-0.1,0.7-0.1,1.3-0.1,2c-6.7,0.6-13.3,1.8-19.9,2.9c-10.7,1.8-21.3,3.7-32,5.7
		c-11.8,2.3-23.6,4.6-35.4,7c-10.3,2.1-20.5,4.2-30.8,6.4c-6.2,1.3-12.4,2.6-18.5,4.3c-0.4,0.1-0.7,0.2-1.1,0.3
		c-0.1,0.1-0.2,0.1-0.4,0.2c0.3-2.5,0.9-5,1.8-7.5C307.8,159,308,158.5,308.3,157.8z M305.5,172.8c-0.1-1.3,0-2.6,0.1-3.9
		c0.2,0.3,0.7,0.5,1.2,0.4l0,0c5.4-1.6,10.9-2.7,16.4-3.9c9.8-2.1,19.8-4.2,29.7-6.2c22.5-4.6,45-9,67.6-12.9
		c7.7-1.3,15.4-2.8,23.2-3.5c-0.1,1.9,0,3.9,0.1,5.7c-6.3,0.6-12.6,1.7-18.8,2.6c-10.9,1.7-21.8,3.5-32.6,5.4
		c-11.9,2.1-23.9,4.2-35.8,6.4c-10.5,2-20.9,3.9-31.2,6c-6.3,1.3-12.7,2.4-18.8,4.1c-0.3,0.1-0.6,0.2-1,0.2
		C305.5,173.1,305.5,173,305.5,172.8z M306.1,175.8L306.1,175.8c5.4-1.6,11.1-2.6,16.6-3.7c10-2,19.9-3.9,30-5.8
		c11.9-2.2,23.8-4.3,35.7-6.4c11.1-2,22.1-3.8,33.2-5.6c7.5-1.2,15-2.4,22.5-3.2c0.2,1.9,0.5,3.7,0.9,5.6
		c-6.7,0.6-13.3,1.7-19.8,2.7c-10.7,1.7-21.4,3.5-32.1,5.3c-22,3.9-44,7.8-65.9,12.2c-6.5,1.3-13.2,2.4-19.6,4.3
		c-0.3,0.1-0.5,0.2-0.7,0.4c-0.6-2-0.9-3.9-1.2-5.9C305.9,175.8,306,175.8,306.1,175.8z M308.3,183.7L308.3,183.7
		c5.4-1.6,11-2.6,16.5-3.7c9.8-2,19.6-3.9,29.5-5.7c22.4-4.2,44.9-8.3,67.6-11.9c7.9-1.2,15.8-2.6,23.7-3.3c0.4,1.5,0.9,2.9,1.3,4.3
		c-6.8,0.6-13.6,1.8-20.4,2.9c-10.7,1.7-21.4,3.7-32.1,5.6c-22,4-44,8.3-65.9,12.8c-6.4,1.3-12.8,2.5-19.1,4.3
		c-0.7-1.8-1.4-3.5-2-5.4C307.7,183.7,308,183.7,308.3,183.7z M310.5,191.3c5.1-1.5,10.5-2.4,15.7-3.6c9.8-2.1,19.6-4,29.5-6
		c22.4-4.4,44.9-8.7,67.5-12.4c8.1-1.3,16.3-2.8,24.6-3.5c0.1,0,0.1,0,0.1,0c0.2,0.6,0.6,1.3,0.9,1.9c0.2,0.4,0.4,0.7,0.6,1.1
		c-0.1,0-0.1,0-0.2,0c-7.2,0.6-14.2,1.9-21.3,3.1c-10.6,1.8-21.2,3.8-31.8,5.8c-21.9,4.2-43.7,8.6-65.4,13.4
		c-6.1,1.3-12.2,2.5-18.2,4.2C311.8,193.9,311.1,192.6,310.5,191.3z M444.6,132.6c-6.5,0.6-12.9,1.6-19.3,2.6
		c-10.6,1.6-21.1,3.3-31.6,5.1c-21.8,3.7-43.5,7.5-65.2,11.7c-6.4,1.3-13.1,2.3-19.4,4.2H309c0.5-1.1,1-2.1,1.6-3.2
		c0.9-1.8,1.7-2.7,2.9-4.1c0.3-0.4,0.7-0.7,1-1.1c4.6-1.2,9.3-1.9,13.9-2.8c9.8-1.8,19.7-3.5,29.6-5.1c22.6-3.7,45.1-7.3,67.8-10.5
		c6.6-0.9,13.2-1.9,19.8-2.6C445.2,128.8,444.8,130.7,444.6,132.6z M429.2,126.5c-10.8,1.5-21.5,3.1-32.2,4.7
		c-22.1,3.4-44.2,6.9-66.2,10.9c-4.3,0.8-8.8,1.5-13.2,2.4c2.4-2.6,4.8-5.1,6.9-7.9c0.7,0.3,1.5,0.4,2.3,0.3
		c31.9-5,63.8-10.1,95.6-15.1c8.8-1.4,17.7-2.8,26.5-4.2c-1,2.1-1.9,4.4-2.6,6.7C440.6,124.9,434.9,125.7,429.2,126.5z M307.7,91.1
		c0.2,0.1,0.5,0.1,0.7,0l0,0c5.2-1.5,10.7-2.3,16-3.2c9.5-1.7,19.1-3.2,28.6-4.6c21.8-3.4,43.5-6.5,65.4-9.3
		c7.2-0.9,14.4-1.9,21.6-2.6c-0.4,1.8-0.7,3.7-0.9,5.5c-16.3,1.5-32.7,4-48.9,6.3c-22,3.1-43.9,6.2-65.8,9.9
		c-5.8,1-11.9,1.8-17.6,3.2C307.2,94.6,307.4,92.8,307.7,91.1z M309.1,112.3c4.8-1.2,9.7-1.9,14.6-2.8c9.8-1.7,19.6-3.2,29.4-4.7
		c22.4-3.4,44.9-6.6,67.4-9.5c6.5-0.9,13.1-1.7,19.6-2.4c0.2,1,0.4,1.9,0.7,2.9c-16.4,1.5-32.7,4-49,6.3c-22,3.1-43.9,6.2-65.8,9.9
		c-5.3,0.9-10.8,1.6-16,2.9C309.6,114.1,309.3,113.2,309.1,112.3z M307,98.9c5-1.3,10.2-2.1,15.3-2.9c9.8-1.7,19.6-3.2,29.4-4.7
		c22.4-3.4,44.9-6.6,67.4-9.5c6.7-0.9,13.3-1.7,20.1-2.4c-0.1,1.4-0.1,2.9-0.1,4.3c-16.3,1.5-32.5,4-48.6,6.2
		c-22,3.1-43.9,6.2-65.8,9.9c-5.8,1-11.7,1.8-17.5,3.2C307,101.7,306.9,100.3,307,98.9z M325.1,130.9c-0.4,0.1-0.7,0.2-1,0.4
		c-0.7-0.4-1.5-0.5-2.2-0.3c-0.3-0.6-0.7-1-1.3-1.3c2.3-0.4,4.7-0.8,7-1.2c9.8-1.7,19.6-3.2,29.4-4.7c22.4-3.4,44.9-6.6,67.4-9.5
		c7.2-0.9,14.3-1.9,21.5-2.6c-31.3,5-62.6,9.9-93.9,14.9C343.1,128.1,334.1,129.5,325.1,130.9z M451.4,113.4
		c-0.1-0.1-0.1-0.2-0.1-0.3c0.1,0.1,0.1,0.1,0.2,0.2C451.5,113.3,451.5,113.3,451.4,113.4z M395.9,115.7c-22,3.1-43.9,6.2-65.8,9.9
		c-4.3,0.7-8.6,1.3-12.9,2.2c-1-1.3-1.9-2.6-2.8-3.9c3.9-0.9,7.9-1.4,11.9-2.1c9.8-1.7,19.6-3.2,29.4-4.7
		c22.4-3.4,44.9-6.6,67.4-9.5c7.2-0.9,14.4-1.9,21.6-2.6c0.9,1.5,1.8,2.9,2.9,4.2C430.3,110.7,413,113.3,395.9,115.7z M394.5,108.9
		c-22,3.1-43.9,6.2-65.8,9.9c-5.1,0.9-10.5,1.6-15.6,2.8c-0.8-1.4-1.5-2.9-2.2-4.3c4.2-0.9,8.5-1.6,12.7-2.3
		c9.8-1.7,19.6-3.2,29.4-4.7c22.4-3.4,44.9-6.6,67.4-9.5c7-0.9,14.1-1.8,21.1-2.5c0.2,0.6,0.4,1.1,0.6,1.7c0.4,0.9,0.8,1.8,1.3,2.8
		C427.1,104.2,410.8,106.7,394.5,108.9z M391.8,96.8c-22,3.1-43.9,6.2-65.8,9.9c-5.8,1-11.9,1.8-17.6,3.2c-0.3-1.2-0.6-2.4-0.8-3.5
		c-0.1-0.2-0.1-0.5-0.1-0.7c4.8-1.2,9.8-2,14.7-2.8c9.8-1.7,19.6-3.2,29.4-4.7c22.4-3.4,44.9-6.6,67.4-9.5
		c6.7-0.9,13.3-1.7,20.1-2.4c0.1,1.5,0.2,2.9,0.5,4.3C423.6,92.1,407.7,94.6,391.8,96.8z M440.7,68.9c-16.8,1.5-33.5,4-50.1,6.4
		c-21.3,3-42.6,6.1-63.8,9.7c-6.2,1-12.7,1.9-18.7,3.6c0.4-1.9,1-3.8,1.7-5.6c5.3-1.6,11-2.3,16.5-3.2c9.8-1.7,19.6-3.2,29.4-4.7
		c22.4-3.4,44.9-6.6,67.4-9.5c6.4-0.8,12.8-1.7,19.3-2.3C441.7,65.1,441.2,67,440.7,68.9z M314.6,134.6c0.1,0.1,0.2,0.2,0.2,0.3
		c0.6,0.7,1.5,0.9,2.3,0.9c-2.6,3-5.3,5.7-8,8.6c-3.4,3.6-5.4,7.8-7.2,12.4c-3.7,9.6-3.4,19.8-0.1,29.5c1.5,4.3,3.3,8.4,5.3,12.5
		c-0.4-0.1-0.7-0.2-1.1-0.2c-0.7-0.2-1.3-0.3-2-0.4c-3.5-8.1-5.6-16.9-6.4-25.7c-0.8-9.5-0.1-19.4,3.6-28.3c0.9-2.1,2-4.1,3.2-6
		c1-1.5,2.4-3,3-4.8C309.9,133.7,312.3,134.1,314.6,134.6z M294.6,316.2L294.6,316.2c6.1-1.8,12.2-3.8,18.2-5.7
		c11.3-3.5,22.6-7.2,33.8-10.8c13.3-4.2,26.6-8.4,39.9-12.6c12.4-3.9,24.7-7.7,37.1-11.4c7.8-2.4,15.7-4.8,23.6-6.8
		c-0.1,0.2-0.1,0.4-0.1,0.7c-0.2,1.2-0.4,2.3-0.5,3.5c-7.5,1.3-14.8,3.5-22.1,5.7c-12.1,3.5-24.2,7.2-36.1,11
		c-13.4,4.2-26.7,8.5-40.1,12.8c-11.7,3.8-23.4,7.6-35,11.4c-6.8,2.3-13.6,4.5-20.5,6.7c-0.4,0.1-0.7,0.2-1.1,0.3
		c-0.2,0.1-0.4,0.2-0.6,0.4c0.6-1.9,1.3-3.7,2.1-5.6C293.6,316.2,294,316.4,294.6,316.2z M290.1,326c0.2-1.2,0.6-2.4,0.9-3.7
		c0.1,0.7,0.7,1.3,1.5,1l0,0c6.1-1.8,12-3.9,18.1-5.8c11.3-3.7,22.5-7.3,33.8-11c13.3-4.3,26.6-8.6,39.9-12.8
		c12.4-3.9,24.7-7.8,37.1-11.4c8.2-2.4,16.4-5,24.8-6.6c0.1,0,0.2-0.1,0.3-0.1c-0.1,1.8-0.1,3.5,0,5.3c-0.2-0.1-0.4-0.1-0.6,0
		c-7.6,1.2-15.2,3.6-22.7,5.8c-12.1,3.5-24.2,7.2-36.1,11c-13.4,4.2-26.7,8.5-40.1,12.8c-11.7,3.8-23.4,7.6-35,11.4
		c-6.8,2.3-13.6,4.5-20.5,6.7c-0.4,0.1-0.7,0.2-1.1,0.3c-0.4,0.1-0.7,0.4-0.8,0.8C289.7,328.5,289.9,327.2,290.1,326z M447.9,266.2
		c-7,1.7-13.9,3.9-20.9,5.9c-12,3.6-24,7.3-36.1,11.1c-13.4,4.2-26.7,8.4-40.1,12.6c-11.7,3.7-23.4,7.5-35.2,11.1
		c-6.9,2.2-13.8,4.4-20.7,6.5c-0.2,0.1-0.6,0.2-0.8,0.2c1.2-2.4,2.5-4.8,3.9-7c5.8-1.8,11.6-3.7,17.4-5.6c11.3-3.7,22.5-7.3,33.8-11
		c13.3-4.3,26.6-8.6,39.9-12.8c12.4-3.9,24.7-7.8,37.1-11.4c7.8-2.3,15.7-4.6,23.6-6.4C449.1,261.7,448.4,263.9,447.9,266.2z
		 M451.2,256.7c-7.3,1.3-14.4,3.5-21.5,5.6c-12.1,3.5-24.2,7.2-36.1,11c-13.4,4.2-26.7,8.5-40.1,12.8c-11.7,3.8-23.4,7.6-35,11.4
		c-6.1,2-12,4-18.1,5.9c0.5-0.7,1-1.3,1.5-2.1c0.6-0.7,0.6-1.7,0.2-2.6c20.8-5.6,41.3-12,61.8-18.5c21.6-6.8,43.1-13.9,64.8-20.7
		c8.4-2.6,16.7-5.2,25.1-7.6C452.8,253.6,451.9,255.1,451.2,256.7z M447.3,240.7c-7.5,1.2-14.9,3.1-22.3,4.8
		c-11.7,2.8-23.4,5.6-35,8.6c-13,3.3-26.1,6.6-39,10c-11.3,2.9-22.6,5.9-33.8,8.9c-6.5,1.7-13,3.4-19.5,5.3
		c-0.2-1.8-0.5-3.7-0.7-5.5c5.3-1.5,10.7-2.8,16-4.1c10.9-2.7,21.8-5.3,32.7-7.9c12.9-3.1,25.8-6.1,38.8-9.1c12-2.8,24-5.5,36-8.2
		c8.1-1.8,16.2-3.6,24.3-5.1c0.4-0.1,0.9-0.1,1.3-0.2C446.5,239.1,446.9,239.9,447.3,240.7C447.4,240.7,447.4,240.7,447.3,240.7z
		 M443.5,192.2c-6.9,1.2-13.8,2.7-20.6,4.1c-11.1,2.4-22.2,4.9-33.3,7.4c-12.3,2.8-24.6,5.6-36.8,8.5c-10.7,2.5-21.4,5.1-32.1,7.6
		c-5.6,1.3-11.3,2.7-16.8,4.2c0.7-1.7,1.6-3.2,2.4-4.8c5.3-1.5,10.8-2.8,16.1-4.1c10.3-2.5,20.6-5,30.9-7.4
		c12.2-2.9,24.5-5.7,36.7-8.5c11.4-2.6,22.7-5.1,34.2-7.6c7.2-1.5,14.3-3.1,21.5-4.4C444.9,188.8,444.1,190.4,443.5,192.2z
		 M134.4,15.5c19.1-2.4,38.3-4.5,57.5-6.3c11.8-1.1,23.5-2,35.3-2.9c5.3,0.6,10.6,1.2,15.9,1.9c2.9,0.4,5.7,0.8,9.1,1.2
		c3.4,0.5,6.9,1,10.3,1.5c15.7,2.3,31.4,4.8,47,7.5c17.1,2.9,34.2,5.8,51.4,8.9c16.5,2.9,33.1,5.9,49.6,9
		c11.3,2.1,22.6,4.3,33.9,6.4c-13.2,2-26.5,3.5-39.8,5.1c-19,2.3-38,4.3-56.9,7c-9.8,1.3-19.6,2.9-29.3,4.7c-0.1,0-0.3,0.1-0.4,0.1
		c-30.8-5.9-61.8-10.6-92.8-15c-33.2-4.7-66.5-9.1-99.8-13.4c-15.6-2-31.2-4.1-46.8-6.2c0.7-0.1,1.3-0.2,2-0.3
		c1.2-0.2,2.4-0.8,2.9-1.8C100.3,20.1,117.3,17.6,134.4,15.5z M52.2,67.7L52.2,67.7L52.2,67.7z M62,88L62,88
		c-3.6-3.4-6.3-7.8-7.9-12.4c-0.9-2.6-1.5-5.2-1.9-7.8c0-0.1,0-0.1,0-0.1c0-0.1-0.1-0.2-0.1-0.4c-0.1-0.4-0.1-0.7-0.1-1.1
		c-0.1-0.7-0.1-1.4-0.1-2.1c-0.1-1.3-0.1-2.7,0-4c0.1-3,0.4-4.8,1-7.7c0.3-1.3,0.7-2.8,1.1-4.1c0.2-0.6,0.4-1.2,0.6-1.8
		c0.1-0.3,0.2-0.6,0.4-0.9c0.1-0.1,0.2-0.6,0.2-0.7c2.2-5.1,5-9.2,9.1-12.8c2.1-1.9,4.8-3.5,7.5-4.8c0.2,0.4,0.6,0.7,1.1,0.9
		c31.5,4.3,63,8.4,94.5,12.5c33.2,4.4,66.3,8.9,99.4,14.1c13.4,2.1,26.7,4.3,40.1,6.7c-11.6,14.7-15.2,35-9.8,53
		c1.2,4.2,2.9,8.1,5.1,11.9c-7.7-1.3-15.5-2.5-23.2-3.8c-13.3-2.1-26.6-4.2-39.9-6.2c-15.3-2.4-30.5-4.7-45.8-7
		c-15.6-2.4-31.2-4.7-46.8-7c-14.2-2.1-28.4-4.2-42.7-6.2c-11.1-1.6-22.3-3.2-33.5-4.8c-2.4-0.4-5-0.7-7.4-1
		C63,89.4,62.7,88.6,62,88z M33.4,144.9c-0.7-0.6-1.3-1.3-1.9-2l-0.1-0.1c0-0.1-0.1-0.1-0.1-0.1c-0.1-0.1-0.2-0.3-0.3-0.5
		c-0.2-0.3-0.4-0.6-0.6-1c-0.5-0.8-0.9-1.7-1.3-2.5c0-0.1-0.1-0.1-0.1-0.2c-0.1-0.1-0.1-0.2-0.2-0.4c-0.2-0.4-0.3-0.9-0.5-1.3
		c-0.2-0.8-0.5-1.7-0.7-2.5c-0.1-0.5-0.2-0.9-0.3-1.4c0-0.1-0.1-0.6-0.1-0.8c-0.1-0.9-0.2-1.8-0.2-2.6c-0.1-1.8-0.1-3.7,0.1-5.5
		c0.1-0.4,0.1-0.9,0.1-1.3c0-0.2,0.1-1,0.1-1c0.1-0.9,0.2-1.8,0.4-2.6c0.7-3.4,1.6-6.7,2.8-9.9c0.1-0.4,0.3-0.8,0.5-1.2
		c0.1-0.2,0.4-0.9,0.2-0.6c0.3-0.7,0.6-1.3,0.9-1.9c1.1-2.3,2.5-4.5,4.3-6.3c3.3-3.2,8-5,12.5-4.5c2.1,0.2,4.2,0.4,6.2,0.7
		c1.6,0.2,3.2,0.4,4.8,0.6c0.9,0.1,1.8,0.2,2.8,0.4l0.7,0.1c0.8,0.1-0.5-0.1,0,0c0.6,0.1,1.1,0.1,1.7,0.2
		c10.5,1.4,20.9,2.9,31.3,4.4c13.6,2,27.3,4,40.9,6c15.3,2.3,30.6,4.5,45.9,6.8c15.2,2.3,30.4,4.6,45.6,6.9
		c13.6,2.1,27.2,4.2,40.8,6.4c10.3,1.7,20.6,3.2,30.9,5c1.4,0.2,2.9,0.5,4.3,0.7c-0.3,0.8-1,1.6-1.5,2.3c-1.3,1.8-2.6,3.8-3.5,5.9
		c-4.2,8.7-5.4,18.7-5,28.4c0.5,9.5,2.5,19.1,6.1,28c-0.7-0.2-1.5-0.3-2.1-0.5c-8.1-1.7-16.2-3.3-24.3-4.9
		c-11.4-2.3-22.9-4.5-34.4-6.7c-13.5-2.6-27-5.1-40.6-7.6c-14.1-2.6-28.3-5.3-42.4-7.8c-13.5-2.4-26.9-4.9-40.4-7.3
		c-11.4-2-22.9-4-34.4-5.9c-8.1-1.3-16.1-2.7-24.2-3.8c-2.6-0.4-5.1-0.7-7.7-0.9c-0.6-0.1-1.2-0.1-1.8-0.1c-0.4-0.6-1-1-1.7-1.2l0,0
		c-4.5-0.6-8.4-1.8-12-4.3C34.6,146,34.2,145.7,33.4,144.9z M48.7,158C48.9,157.9,49,157.9,48.7,158L48.7,158z M35.1,226.5
		c-4.4-6.1-7-12.4-8.2-19.8c-0.2-1.5-0.4-2.9-0.6-4.8c-0.1-1.8-0.1-3.7-0.1-5.4c0.1-3.9,0.5-6.5,1.3-10.2c0.4-1.7,0.9-3.4,1.5-5.1
		c0.6-1.8,1.1-2.9,1.8-4.4c0.7-1.5,1.5-3.1,2.4-4.6c0.4-0.7,0.9-1.3,1.3-2c0.2-0.3,0.4-0.7,0.7-1c0.1-0.2,0.9-1.2,0.6-0.8
		c1-1.3,2.1-2.6,3.3-3.7c0.6-0.6,1.1-1.1,1.7-1.6c0.3-0.2,0.6-0.5,0.9-0.7c0.1-0.1,0.3-0.2,0.4-0.4c0.1-0.1,0.1-0.1,0.1-0.1l0,0
		c1.3-1,2.6-1.9,4.1-2.6c0.7-0.4,1.3-0.7,2-1c0.1,0,0.1-0.1,0.1-0.1c0.2,0,0.4,0,0.6,0c0.7,0,1.5,0.1,2.3,0.2
		c1.1,0.1,2.2,0.2,3.3,0.4c0.3,0.1,0.6,0.1,0.9,0.1c0.1,0,0.2,0.1,0.4,0.1c0.7,0.1,1.5,0.2,2.2,0.3c3.6,0.5,7.3,1.1,10.9,1.7
		c2.7,0.4,5.3,0.9,8,1.3c-13,20.4-17.8,46-12.5,69.6c1,4.3,2.4,8.5,4.7,12.2c-2.8-0.6-5.6-1.2-8.4-1.8c-2.8-0.6-5.6-1.2-8.4-1.8
		c0.6,0.1-0.6-0.2-0.8-0.4c-0.5-0.2-0.9-0.4-1.3-0.7c-1-0.5-2-1-2.9-1.7c-1.7-1-3.4-2.2-4.6-3.2C39.9,232.1,37,229.1,35.1,226.5z
		 M192.3,331.9c-32.7-6.8-65.4-14.5-97.6-23.2c-17.4-4.7-34.7-9.8-51.8-15.3c-0.1-0.5-0.4-0.9-0.8-1.3l0,0
		c-5.7-5.9-9.1-13.8-9.1-21.7c0-2.2,0.1-3.5,0.5-5.3c0.2-0.9,0.4-1.8,0.7-2.6c0.1-0.5,0.3-1,0.5-1.4c0.1-0.1,0.1-0.2,0.2-0.4
		c0.1-0.1,0.2-0.4,0.2-0.5c0.4-0.9,0.9-1.7,1.3-2.5c0.2-0.4,0.5-0.7,0.7-1.1c0.1-0.2,0.2-0.3,0.4-0.5s0.1-0.2,0.1-0.2
		s0.1-0.1,0.2-0.2c0.6-0.7,1.2-1.3,1.9-2c0.9-0.8,1.3-1.2,2-1.7c4.1-2.8,8.7-4,13.6-4.2c0.4,0,0.7-0.1,1-0.2
		c3.9,0.8,7.6,1.7,11.5,2.4c9.4,2,18.8,4,28.2,6.1c12.2,2.6,24.3,5.2,36.5,7.8c13.6,2.9,27.2,5.8,40.7,8.7c13.6,2.9,27.3,5.8,41,8.7
		c12.2,2.6,24.5,5.3,36.8,7.9c9.5,2,19,4,28.5,6.1c2.3,0.5,4.5,1,6.7,1.5c-4.8,3.8-7.1,10.4-8.3,16.4c-1.8,9.2-2.5,19.1-0.6,28.4
		c0.6,2.6,1.3,5.1,2.4,7.5C250.6,343.6,221.4,338.1,192.3,331.9z M453.6,301.1c-18.2,6.7-36.4,13.1-54.9,19.1
		c-21.7,7.2-43.5,14-65.5,20.4c-12.4,3.6-24.7,7-37.1,10.4c-0.5,0.1-0.9,0.4-1.2,0.6c-0.1-0.3-0.2-0.6-0.4-0.9
		c-3.7-6.3-5.5-13.3-5-20.5c0.1,0.7,0.7,1.3,1.5,1l0,0c6.1-1.8,12-3.9,18.1-5.8c11.3-3.7,22.5-7.3,33.8-11
		c13.3-4.3,26.6-8.6,39.9-12.8c12.4-3.9,24.7-7.8,37.1-11.4c8.2-2.4,16.4-5,24.8-6.6c0.6-0.1,1.2-0.2,1.8-0.3c0.1,0,0.1,0,0.1,0
		c0.1,1.2,0.3,2.3,0.5,3.4c-0.2-0.1-0.3-0.1-0.6,0c-7.6,1.2-15.2,3.6-22.7,5.8c-12.1,3.5-24.2,7.2-36.1,11
		c-13.4,4.2-26.7,8.5-40.1,12.8c-11.7,3.8-23.4,7.6-35,11.4c-6.8,2.3-13.6,4.5-20.5,6.7c-0.4,0.1-0.7,0.2-1.1,0.3
		c-1.5,0.4-0.9,2.9,0.7,2.4l0,0c6.1-1.8,12-3.9,18.1-5.8c11.3-3.7,22.5-7.3,33.8-11c13.3-4.3,26.6-8.6,39.9-12.8
		c12.4-3.9,24.7-7.8,37.1-11.4c8.2-2.4,16.4-5,24.8-6.6c0.6-0.1,1.2-0.2,1.8-0.3c0.1,0,0.2-0.1,0.4-0.1c0.6,2.2,1.3,4.3,2.2,6.4
		C450.8,297.4,452.1,299.4,453.6,301.1z M447.5,184.3c-6.8,1.2-13.5,2.6-20.3,4.1c-11.1,2.4-22.2,4.9-33.3,7.4
		c-12.3,2.8-24.6,5.6-36.8,8.5c-10.7,2.5-21.4,5.1-32.1,7.6c-5.6,1.3-11.3,2.7-16.8,4.2c1.4-2.1,3-4.2,4.7-6.2
		c20.4-5.9,41.3-10.2,62.1-14.7c22.6-4.8,45.3-9.4,67.9-13.9c2.9-0.6,5.7-1.2,8.6-1.7C449.9,181.1,448.6,182.7,447.5,184.3z"/>
	<path class="st0" d="M188.4,94.1l76.6,10.5c8.1,1.1,15.7-4.6,16.8-12.8c1.1-8.2-4.6-15.7-12.8-16.8l-76.6-10.5
		c-8.2-1.1-15.7,4.6-16.8,12.8C174.5,85.4,180.3,92.9,188.4,94.1z"/>
	<path class="st0" d="M66.2,142.2l76.4,11.8c8.1,1.2,15.8-4.3,17-12.5c1.2-8.1-4.3-15.8-12.5-17l-76.4-11.8
		c-8.1-1.3-15.8,4.3-17,12.5C52.5,133.3,58.1,140.9,66.2,142.2z"/>
	<path class="st0" d="M310.5,337.6c11.3-3.7,22.5-7.3,33.8-11c13.3-4.3,26.6-8.6,39.9-12.8c12.4-3.9,24.7-7.8,37.1-11.4
		c8.2-2.4,16.4-5,24.8-6.6c0.6-0.1,1.2-0.2,1.8-0.3c1.6-0.2,0.9-2.6-0.7-2.4c-7.6,1.2-15.2,3.6-22.7,5.8c-12.1,3.5-24.2,7.2-36.1,11
		c-13.4,4.2-26.7,8.5-40.1,12.8c-11.7,3.8-23.4,7.6-35,11.4c-6.8,2.3-13.6,4.5-20.5,6.7c-0.4,0.1-0.7,0.2-1.1,0.3
		c-1.5,0.4-0.9,2.9,0.7,2.4l0,0C298.6,341.7,304.6,339.7,310.5,337.6z"/>
	<path class="st0" d="M391.4,314.8c-13.4,4.2-26.7,8.5-40.1,12.8c-11.7,3.8-23.4,7.6-35,11.4c-6.8,2.3-13.6,4.5-20.5,6.7
		c-0.4,0.1-0.7,0.2-1.1,0.3c-1.5,0.4-0.9,2.9,0.7,2.4l0,0c6.1-1.8,12-3.9,18.1-5.8c11.3-3.7,22.5-7.3,33.8-11
		c13.3-4.3,26.6-8.6,39.9-12.8c12.4-3.9,24.7-7.8,37.1-11.4c8.2-2.4,16.4-5,24.8-6.6c0.6-0.1,1.2-0.2,1.8-0.3
		c1.6-0.2,0.9-2.6-0.7-2.4c-7.6,1.2-15.2,3.6-22.7,5.8C415.4,307.4,403.4,311.1,391.4,314.8z"/>
	<ellipse transform="matrix(0.1761 -0.9844 0.9844 0.1761 -214.6503 293.4629)" class="st0" cx="68" cy="275" rx="15.5" ry="16.8"/>
	<path class="st0" d="M7.7,255.3L7.7,255.3c-2.9,5.1-3.6,11.4-1.8,16.9c0.6,1.8,3.5,1,2.9-0.8c-1.6-4.8-1.1-10.2,1.5-14.6
		C11.3,255.1,8.7,253.6,7.7,255.3z"/>
	<path class="st0" d="M9.6,170c-4.7,7.6-7.8,16.2-9,25c-1.2,8.9-0.7,18.1,1.7,26.8c1.3,4.9,3.3,9.6,5.7,14c1,1.7,3.6,0.2,2.6-1.5
		C6.5,226.8,4,218.5,3.3,210c-0.7-8.6,0.2-17.2,2.8-25.3c1.5-4.6,3.5-9,6.1-13.1l0,0C13.3,169.9,10.7,168.3,9.6,170z"/>
	<path class="st0" d="M495.3,48.4c-4.6,17.4-8.3,21.1-25.7,25.7c17.4,4.6,21.1,8.3,25.7,25.7c4.6-17.4,8.3-21.1,25.7-25.7
		C503.6,69.5,499.9,65.8,495.3,48.4z"/>
	<path class="st0" d="M533.9,39.8c-2.1,8.1-3.9,9.8-11.9,11.9c8.1,2.1,9.8,3.9,11.9,11.9c2.1-8.1,3.9-9.8,11.9-11.9
		C537.8,49.6,536.1,47.9,533.9,39.8z"/>
	<path class="st0" d="M533.8,87.6H530v-3.5c0-1.2-1.8-1.2-1.8,0v3.5h-4c-1.2,0-1.2,1.8,0,1.8h4v4c0,1.2,1.8,1.2,1.8,0v-4h3.8
		C535,89.5,535,87.6,533.8,87.6z"/>
	<path class="st0" d="M502.6,22.7h4v4c0,1.2,1.8,1.2,1.8,0v-4h3.8c1.2,0,1.2-1.8,0-1.8h-3.8v-3.5c0-1.2-1.8-1.2-1.8,0v3.5h-4
		C501.3,20.9,501.3,22.7,502.6,22.7z"/>
</g>
</svg>
