<?xml version="1.0" encoding="utf-8"?>
<!-- Generator: Adobe Illustrator 27.2.0, SVG Export Plug-In . SVG Version: 6.00 Build 0)  -->
<svg version="1.1" id="Layer_2_00000006697750367144030870000004216736754873465268_"
	 xmlns="http://www.w3.org/2000/svg" xmlns:xlink="http://www.w3.org/1999/xlink" x="0px" y="0px" viewBox="0 0 892.6 584"
	 style="enable-background:new 0 0 892.6 584;" xml:space="preserve">
<style type="text/css">
	.st0{fill:#400705;}
</style>
<g>
	<path class="st0" d="M755.1,280c-1.3,0.3-2.7,0.6-4,0.9c-3.1-2.9-5.6-6.4-7.8-10.4c-1.7-3.2-2.7-5.7-3.8-9.2
		c-1.1-3.5-2-7.2-2.6-10.8c-2.2-13.5-1.3-28.6,2.2-41.9c0.9-3.3,1.9-6.6,3.2-9.8c0-0.1,0.7-1.6,0.8-1.9c0.3-0.7,0.6-1.3,1-1.9
		c0.7-1.3,1.5-2.5,2.3-3.7c1.1-1.6,0.9-3.7-0.1-5.3c1.8-1.8,2.1-5.4,0-7.2c-9.1-7.7-14.4-17.7-16.8-28.7c0.4-0.9,0.2-1.9-0.5-2.4
		c-3-16.8,0.6-35.4,7.8-50.6c3.7-7.8,8.4-15.1,14.2-21.6c1.4-1.3,2-3.5,1.5-5.2c0,0,0,0,0,0c0,0,0,0,0-0.1c0.7-2.5-0.8-5.7-3.5-6.3
		c-21.9-4.3-43.9-8.5-65.8-12.7c-26.8-5-53.5-9.9-80.3-14.7c-28.2-5-56.3-9.9-84.6-14.7c-26.1-4.4-52.3-8.6-78.5-12.6
		C418.9,6,397.9,3,376.9,0.7c-0.6-0.1-1.2-0.1-1.8-0.2c-0.7-0.3-1.4-0.5-2.2-0.5c-0.4,0-0.8,0.1-1.2,0.1c-0.3,0-0.7-0.1-1-0.1
		c-0.7-0.1-1.4,0.1-2,0.3c-32.7,2.4-65.4,5.3-97.9,8.8c-30.3,3.3-60.6,7-90.8,11.4c-15.7,2.2-31.4,4.6-47,7.1
		c-1.5,0.2-2.7,1.4-3.3,2.9c-9.9,1.5-19.4,5.1-27.5,11.1c-8,6-14.5,13.9-19.1,22.9c-9,17.8-11.2,39.4-5.6,58.6
		c2.4,8.2,6.3,15.9,11.6,22.5c-2.3-0.3-4.6-0.5-6.9-0.8c-5.1-0.5-10.1,0-15.1,1.6c-15.5,5-23.5,18.9-28.2,33.5
		c-7.5,23.1-8.5,54,14.3,68.9c3.8,2.5,8.1,4.3,12.4,5.5c-16,10.9-26.3,29.4-30.6,48c-5.5,24.2-2,51,12.2,71.6
		c6.8,9.8,15.7,18,26,23.9c-9.7,3.5-18.2,9.9-23.5,19.4c-7.5,13.3-7.9,29.9-2.8,44.1c3.1,8.7,8,16.6,14.5,23.2
		c0.4,0.4,0.7,0.6,1.1,0.9c0.4,1.5,1.4,2.9,3.4,3.5l0,0c51.2,16.5,103.1,30.7,155.3,43.3c53.7,13,107.8,24.3,162.1,34.6
		c27.2,5.2,54.4,10.1,81.7,14.9c0.3,0.2,0.7,0.2,1,0.2c3.2,0.6,6.4,1.1,9.6,1.7c2.2,0.4,4.4-0.4,5.6-2.2c1,1.7,3,2.8,5.5,2.2l0,0
		c36-9.6,71.8-20,107.4-31c35.5-10.9,70.7-22.5,105.8-34.8c16.8-5.9,33.5-11.9,50.1-18.1c2.2,1,5.1-0.2,6.3-2.2
		c0-0.1,0.1-0.1,0.1-0.2c0.3-0.1,0.5-0.2,0.8-0.3c2.6-1,4.3-3.4,3.5-6.3c-0.7-2.5-3.7-4.5-6.2-3.5c-0.9,0.3-1.8,0.7-2.8,1
		c-2.7-2.5-5-5.7-6.8-9.3c-2.2-4.4-3.9-10.8-4.5-15.7c-1.4-12.5,0.3-24.9,5.1-36.5c2.3-5.6,5.8-11.5,9.8-15.8
		c4-4.2-1.2-10.4-5.6-8.4c-0.1-1.1-0.5-2.2-1.5-3.2c-5-5.1-9.4-12.5-11.9-19.1c-3.1-8-5.1-17-5.9-24.8c-0.4-4.5-0.6-9.1-0.4-13.7
		c0.2-4.6,0.5-8.4,1.3-12.5c0.8-4.2,1.9-8.3,3.3-12.4c0.8-2,0.9-2.5,1.9-4.4c0.9-1.8,1.8-3.5,2.9-5.2c1.5-2.3,1.8-2.8,3.5-4.7
		c1.3-1.4,2.7-2.8,4.2-4c0.2-0.1,0.6-0.5,0.6-0.5c0.5-0.4,1-0.7,1.5-1c0.8-0.5,1.6-1,2.4-1.4c0.4-0.2,0.8-0.4,1.2-0.6
		c0.2-0.1,0.5-0.2,0.7-0.3c0.1,0,0.1-0.1,0.2-0.1c1-0.4,2.1-0.8,3.2-1.1c3.1-0.9,4-3.7,3.4-6.1C762.8,284.5,760.1,278.9,755.1,280z
		 M739.6,283.2c-20.7,4.3-41.5,8.2-62.3,12.4c-39.5,8-79,16.2-118.2,25.3c-14,3.2-28,6.5-41.9,10.3c-0.1-0.1-0.1-0.3-0.2-0.5
		c-1.4-2.6-2.9-5.2-4.3-7.8c7.9-2.2,16-3.8,23.9-5.6c16-3.5,32-6.9,48.1-10.2c36.5-7.5,73-14.8,109.8-21.2
		c13.2-2.3,26.5-4.8,39.9-5.9c1-0.1,1.6-0.7,1.8-1.4C737.3,280.1,738.4,281.7,739.6,283.2z M737.7,402.8c-28,8-55.6,17-83.3,25.9
		c-36.5,11.7-73,23.5-109.6,34.6c-17.5,5.3-35.1,10.5-52.8,15.3c-0.9-3-1.7-5.9-2.4-8.9c9.3-2.9,18.7-5.4,28-8c18-5,36-10,54-15
		c21.2-5.9,42.4-11.7,63.6-17.6c19.6-5.5,39.2-10.9,58.8-16.5c13.2-3.8,26.3-7.5,39.4-11.6c0.8-0.2,1.5-0.5,2.3-0.7
		C736.3,401,737,401.9,737.7,402.8z M469.6,572.4c-2.3-0.4-4.6-0.8-6.9-1.2c-5.3-10.1-6.8-21.9-6.5-33.3c0.1-7.2,0.8-14.5,2-21.7
		c1-6.1,2.4-12.4,5.1-18c2.4-5,5.8-9.5,10.7-12c3.3,0.7,6.5,1.4,9.8,2.1c0.2,0,0.4,0.1,0.6,0.1c-9.4,13-17.3,27.7-20,43.6
		C461.8,545.9,463.7,559.8,469.6,572.4z M119.2,399.9c-4.7-5.8-7.4-13-9.2-20.3c-2.3-9.3-3.5-19-3.8-28.6
		c-0.5-19.2,2.7-38.5,9.4-56.5c3.8-10.1,8.7-19.8,14.7-28.9c3.9,0.6,7.8,1.3,11.8,2c-18.8,33.2-26,72.4-20.9,110.2
		c1.1,8,2.8,15.9,5,23.7C123.9,400.9,121.5,400.4,119.2,399.9z M130.7,402.4c-10.3-34.4-9.3-71.7,2.5-105.6
		c3.4-9.9,7.9-19.4,13.1-28.5c5.3,0.9,10.5,1.8,15.8,2.7c20.7,3.6,41.3,7.2,62,11c22.8,4.1,45.5,8.3,68.2,12.5
		c22.6,4.2,45.2,8.4,67.7,12.7c13.1,2.5,26.2,5,39.3,7.5c-18.9,34.5-27.2,74.5-23.7,113.6c0.8,9.2,2.3,18.4,4.4,27.4
		c-19.6-4.2-39.2-8.4-58.8-12.6c-22.3-4.8-44.5-9.5-66.8-14.3c-21.3-4.6-42.7-9.1-64-13.7c-17.9-3.8-35.8-7.6-53.6-11.5
		C134.8,403.3,132.8,402.8,130.7,402.4z M385,456.8c-0.2,0-0.4-0.1-0.6-0.1c-8.8-36.3-6.9-74.9,5.2-110.3c3.6-10.4,8-20.4,13.3-30
		c0.2-0.3,0.3-0.7,0.3-1c3.1,0.6,6.1,1.2,9.2,1.8c-8,17.2-15,35-19.3,53.5c-4.1,17.7-5.7,35.9-4.6,54c0.7,11.2,2.3,22.4,4.5,33.4
		c0,0.2,0.1,0.3,0.1,0.4C390.4,457.9,387.7,457.3,385,456.8z M396.9,457c-3.7-18.5-5.6-37.4-4.3-56.3c1.2-17.7,5.2-35,11.1-51.8
		c3.6-10.5,8-20.7,12.7-30.7c0-0.1,0.1-0.2,0.1-0.3c1.7,0.3,3.4,0.6,5.1,1c16,3.1,32,6.2,47.9,9.4c5.7,1.1,11.3,2.3,17,3.5
		c-2.9,3.1-5.2,7-7,11c-4.1,9.2-7,19.2-9.3,28.9c-5.6,23.1-7.3,47-4.5,70.6c1.3,11.2,3.6,22.3,6.8,33.1c-11.2-2.4-22.4-4.8-33.6-7.2
		c-14.3-3-28.5-6.1-42.7-9.1C396.7,458.7,397.1,457.9,396.9,457z M498.1,205c-2.1-3.5-4-7.2-5.5-11c-6-14.5-7.9-30.6-6-46.2
		c2-17,8.8-33.5,19.8-46.7c2.7,0.5,5.4,1,8.1,1.5c-0.4,0.2-0.7,0.5-1,0.9h0c-10.4,13.1-18.2,28.4-20.6,45.1
		c-2.4,16.2-0.2,32.4,6.4,47.5c1.8,4.2,4,8.2,6.5,12.1c-1-0.2-1.9-0.3-2.8-0.5c-1.1-0.2-2.2-0.4-3.3-0.5
		C499.1,206.4,498.6,205.7,498.1,205z M730.2,87.7c-27.7,2.5-55.3,6.7-82.9,10.6c-35.9,5-71.8,10.2-107.6,16.2
		c-8.2,1.4-16.6,2.5-24.8,4.3c1.8-2.8,3.7-5.5,5.8-8.1c0.8-1.1,1.4-2.3,1.4-3.5c0.4,0,0.7,0,1.1-0.1h0c28.8-5.5,58-9.2,87.2-12.7
		c30.6-3.7,61.3-7,91.9-11c11.2-1.5,22.3-3,33.5-4.7C733.7,81.5,731.8,84.6,730.2,87.7z M724.9,99.1c-26.7,2.5-53.3,6.6-79.9,10.3
		c-35.9,5-71.8,10.2-107.6,16.2c-9.6,1.6-19.5,2.9-29,5.4c1.1-2.5,2.2-4.9,3.5-7.2c7.8-2,15.9-3.1,23.8-4.5c16-2.7,32-5.2,48.1-7.7
		c36.7-5.6,73.4-10.8,110.2-15.5c11.3-1.4,22.5-2.9,33.9-4.1C726.9,94.3,725.9,96.7,724.9,99.1z M735.9,182.8
		c-0.5-0.2-1-0.4-1.5-0.5c0,0,0.1,0,0.1,0c0.3,0,0.5-0.1,0.8-0.2C735.4,182.4,735.6,182.6,735.9,182.8z M479,388.1
		c-4.7,20.9-5.5,42.7-2.8,63.9c1.1,8.5,2.6,17,4.9,25.3c-1.4-0.3-2.8-0.6-4.2-0.9c-6.1-20.3-9.1-41.4-8.5-62.7
		c0.7-21.5,5-43,12.3-63.2c2.2-6.2,5.3-13.3,10.5-17.7c2.3,0.5,4.6,1,6.8,1.5c1.1,0.2,2.1,0.5,3.2,0.8c0.9,0.2,2.5,1,0.4,0
		c0.8,0.4,1.7,0.6,2.5,0.6c-0.5,0.5-0.8,1.1-0.9,1.8C490.8,351.8,483.1,369.8,479,388.1z M490.2,384.7c0.3,0.1,0.6,0,0.9-0.1l0,0
		c9.2-2.7,18.5-4.8,27.8-7.1c16.8-4.1,33.7-8.1,50.6-12.1c20-4.7,40-9.3,60-13.9c18.6-4.2,37.2-8.4,55.9-12.5
		c11.8-2.5,23.6-5.1,35.4-7.3c-0.4,3-0.7,6-0.9,9.1c-0.1,0-0.2,0-0.2,0c-11.8,1.9-23.6,4.5-35.3,7c-18.2,3.9-36.3,8-54.5,12.1
		c-20.1,4.6-40.2,9.2-60.2,13.9c-17.5,4.1-35,8.3-52.5,12.5c-9.7,2.4-19.5,4.7-29.2,7.3C488.7,390.7,489.4,387.7,490.2,384.7z
		 M487.3,398.2c8.5-2.4,17.2-4.5,25.8-6.6c16.8-4.1,33.7-8.1,50.6-12.1c20-4.7,40-9.3,60-13.9c18.6-4.2,37.2-8.4,55.9-12.5
		c12.8-2.8,25.5-5.6,38.4-7.8c0.6-0.1,1.3-0.2,1.9-0.3c-0.1,9.5,1.1,19,3.5,28.1c-10.9,1.9-21.7,4.3-32.5,6.7
		c-18.7,4.1-37.3,8.3-55.9,12.6c-20.7,4.8-41.3,9.6-61.9,14.6c-18,4.3-36,8.7-54,13.1c-10.7,2.6-21.4,5.2-32,8.2
		c-0.6,0.2-1.2,0.3-1.8,0.5c-0.2,0.1-0.4,0.2-0.6,0.3c0-1.3,0-2.5,0-3.8c0-1.1,0-2.2,0.1-3.3c8.9-2.6,18-4.7,27-6.9
		c16.8-4.1,33.7-8.1,50.6-12.1c20-4.7,40-9.3,60-13.9c18.6-4.2,37.2-8.4,55.9-12.5c12.8-2.8,25.5-5.6,38.4-7.8
		c1-0.2,1.9-0.3,2.8-0.5c2.6-0.4,1.5-4.3-1.1-3.9c-11.8,1.9-23.6,4.5-35.3,7c-18.2,3.9-36.3,8-54.5,12.1
		c-20.1,4.6-40.2,9.2-60.2,13.9c-17.5,4.1-35,8.3-52.5,12.5c-10.3,2.5-20.7,5-31,7.8c0.1-2.4,0.3-4.7,0.5-7.1c7.9-2.2,16-4.1,24-6
		c16.8-4.1,33.7-8.1,50.6-12.1c20-4.7,40-9.3,60-13.9c18.6-4.2,37.2-8.4,55.9-12.5c12.8-2.8,25.5-5.6,38.4-7.8
		c1-0.2,1.9-0.3,2.8-0.5c2.6-0.4,1.5-4.3-1.1-3.9c-11.8,1.9-23.6,4.5-35.3,7c-18.2,3.9-36.3,8-54.5,12.1
		c-20.1,4.6-40.2,9.2-60.2,13.9c-17.5,4.1-35,8.3-52.5,12.5c-9.2,2.2-18.5,4.4-27.7,6.9C486.4,403.6,486.8,400.9,487.3,398.2z
		 M487.4,459.1c8.9-2.6,17.9-4.9,26.8-7.3c17.8-4.8,35.5-9.4,53.3-14.1c21.2-5.5,42.4-11,63.6-16.3c19.6-5,39.2-9.8,58.8-14.5
		c12.3-2.9,24.6-5.9,37-8.3c-9.3,2.9-18.6,5.5-27.9,8.2c-19,5.5-38.1,10.8-57.2,16.1c-21.3,5.9-42.5,11.8-63.8,17.7
		c-18.7,5.2-37.3,10.3-56,15.5c-11.2,3.1-22.4,6.2-33.4,9.5C488.2,463.5,487.8,461.3,487.4,459.1z M484.9,432.5
		c0.4,0.3,1,0.4,1.6,0.2l0,0c9.4-2.8,18.9-5,28.4-7.3c17.3-4.3,34.7-8.5,52-12.7c20.5-4.9,41.1-9.8,61.7-14.6
		c19.1-4.5,38.2-8.8,57.4-13.1c12.8-2.8,25.7-5.7,38.7-8c0.4,1.1,0.7,2.3,1.1,3.4c0.6,1.8,1.3,3.5,2,5.2c-11.7,2-23.4,4.6-35,7.1
		c-19.1,4.2-38.2,8.5-57.3,12.9c-21.2,4.9-42.4,9.9-63.6,14.9c-18.5,4.4-37,8.8-55.4,13.4c-10.4,2.6-20.8,5.1-31.1,7.9
		C485.1,438.8,485,435.7,484.9,432.5z M722.6,322.8c-0.4,1.6-0.7,3.1-1,4.7c-10.5,1.8-20.9,4.1-31.3,6.3c-18.2,3.9-36.3,8-54.5,12.1
		c-20.1,4.6-40.2,9.2-60.2,13.9c-17.5,4.1-35,8.3-52.5,12.5c-10.5,2.5-21,5-31.3,7.9c-0.1,0-0.2,0.1-0.3,0.1c1-3.1,2.1-6.2,3.3-9.3
		c8.4-2.4,16.9-4.4,25.4-6.4c16.8-4.1,33.7-8.1,50.6-12.1c20-4.7,40-9.3,60-13.9c18.6-4.2,37.2-8.4,55.9-12.5
		c12.3-2.7,24.6-5.4,37-7.6C723.3,320,722.9,321.4,722.6,322.8z M504.1,258.1c0.3,0.9,1.2,1.5,2.3,1.2v0c8.7-2.6,17.8-4.1,26.7-5.9
		c15.8-3.1,31.6-6.1,47.4-8.9c36.4-6.6,72.8-12.9,109.3-18.5c12.2-1.9,24.4-3.8,36.6-5c-0.2,1.8-0.4,3.6-0.5,5.4
		c-0.1,1.1-0.1,2.1-0.2,3.2c-10.9,1-21.8,2.9-32.6,4.7c-17.5,2.9-34.9,6.1-52.3,9.4c-19.3,3.7-38.6,7.5-57.9,11.4
		c-16.8,3.4-33.6,6.8-50.3,10.5c-10.1,2.2-20.3,4.3-30.3,7c-0.6,0.2-1.2,0.3-1.8,0.5c-0.2,0.1-0.4,0.2-0.6,0.3
		c0.5-4.1,1.5-8.2,2.9-12.2C503.3,260,503.7,259.1,504.1,258.1z M499.6,282.6c-0.1-2.1,0-4.2,0.1-6.3c0.4,0.5,1.1,0.8,2,0.6h0
		c8.8-2.6,17.9-4.4,26.9-6.3c16.1-3.5,32.3-6.9,48.5-10.2c36.8-7.5,73.6-14.7,110.6-21.1c12.6-2.2,25.2-4.5,37.9-5.7
		c-0.1,3.1,0,6.3,0.2,9.4c-10.3,1-20.6,2.7-30.8,4.3c-17.8,2.7-35.6,5.7-53.3,8.8c-19.5,3.4-39.1,6.9-58.6,10.5
		c-17.1,3.2-34.1,6.4-51.1,9.8c-10.3,2.1-20.7,4-30.8,6.7c-0.5,0.1-1,0.3-1.6,0.4C499.6,283.1,499.6,282.9,499.6,282.6z
		 M500.5,287.4L500.5,287.4c8.9-2.6,18.2-4.2,27.2-6.1c16.3-3.3,32.6-6.4,49-9.5c19.4-3.6,38.9-7.1,58.3-10.5
		c18.1-3.2,36.2-6.2,54.3-9.1c12.2-1.9,24.5-3.9,36.8-5.2c0.3,3.1,0.8,6.1,1.4,9.1c-10.9,1-21.7,2.8-32.4,4.4
		c-17.5,2.7-35,5.7-52.5,8.7c-36,6.3-71.9,12.8-107.7,20c-10.7,2.1-21.6,4-32,7.1c-0.5,0.1-0.8,0.4-1.1,0.7
		c-0.9-3.2-1.5-6.4-1.9-9.6C500.2,287.5,500.4,287.4,500.5,287.4z M504.1,300.3L504.1,300.3c8.8-2.6,18-4.2,27-6
		c16-3.3,32.1-6.3,48.2-9.4c36.7-6.9,73.5-13.5,110.5-19.4c12.9-2,25.8-4.2,38.8-5.4c0.6,2.4,1.4,4.7,2.2,7
		c-11.2,1-22.3,2.9-33.3,4.7c-17.5,2.8-35,6-52.5,9.1c-36,6.6-71.9,13.5-107.7,21c-10.4,2.2-21,4.1-31.2,7.1
		c-1.2-2.9-2.3-5.8-3.2-8.8C503.2,300.4,503.6,300.4,504.1,300.3z M507.7,312.8c8.4-2.4,17.2-4,25.7-5.9c16-3.4,32.1-6.6,48.2-9.8
		c36.7-7.2,73.5-14.2,110.4-20.3c13.3-2.2,26.7-4.6,40.2-5.8c0.1,0,0.1,0,0.2,0c0.4,1,0.9,2.1,1.4,3.1c0.3,0.6,0.6,1.2,1,1.8
		c-0.1,0-0.2,0-0.3,0c-11.7,1-23.3,3.1-34.9,5c-17.4,3-34.7,6.2-52,9.5c-35.8,6.9-71.5,14.1-107,21.9c-9.9,2.2-19.9,4.1-29.7,6.9
		C509.8,317.1,508.7,315,507.7,312.8z M727,216.8c-10.6,1-21.1,2.6-31.6,4.2c-17.3,2.6-34.5,5.4-51.7,8.3
		c-35.6,6-71.2,12.2-106.6,19.2c-10.5,2.1-21.4,3.8-31.7,6.9c0,0-0.1,0-0.1,0c0.8-1.8,1.7-3.5,2.6-5.2c1.5-2.9,2.7-4.4,4.8-6.7
		c0.5-0.6,1.1-1.2,1.7-1.8c7.5-1.9,15.2-3.1,22.8-4.5c16.1-3,32.2-5.7,48.4-8.4c36.9-6.1,73.8-11.9,110.9-17.1
		c10.8-1.5,21.6-3.1,32.4-4.2C728,210.6,727.4,213.7,727,216.8z M701.8,206.9c-17.6,2.4-35.2,5-52.7,7.7
		c-36.1,5.5-72.2,11.3-108.2,17.8c-7.1,1.3-14.4,2.4-21.6,3.9c3.9-4.2,7.8-8.4,11.3-13c1.1,0.5,2.4,0.7,3.7,0.5
		c52.2-8.2,104.3-16.5,156.4-24.7c14.4-2.3,28.9-4.6,43.3-6.8c-1.7,3.5-3.1,7.2-4.2,11C720.5,204.3,711.1,205.6,701.8,206.9z
		 M503.1,149c0.4,0.1,0.8,0.2,1.2,0v0c8.5-2.5,17.5-3.7,26.2-5.3c15.6-2.7,31.2-5.2,46.8-7.6c35.6-5.5,71.2-10.6,107-15.2
		c11.8-1.5,23.6-3.1,35.4-4.2c-0.6,3-1.1,6-1.4,9c-26.7,2.5-53.4,6.6-80,10.3c-35.9,5-71.8,10.2-107.6,16.2
		c-9.5,1.6-19.4,2.9-28.8,5.3C502.3,154.6,502.6,151.8,503.1,149z M505.4,183.6c7.8-2,15.9-3.1,23.8-4.5c16-2.7,32-5.2,48.1-7.7
		c36.7-5.6,73.4-10.8,110.2-15.5c10.7-1.4,21.4-2.8,32.1-3.9c0.3,1.6,0.7,3.1,1.2,4.7c-26.8,2.5-53.5,6.6-80.1,10.3
		c-35.9,5-71.8,10.2-107.6,16.2c-8.7,1.5-17.6,2.6-26.2,4.7C506.3,186.5,505.8,185.1,505.4,183.6z M502,161.7
		c8.1-2.2,16.7-3.4,25-4.8c16-2.7,32-5.2,48.1-7.7c36.7-5.6,73.4-10.8,110.2-15.5c10.9-1.4,21.8-2.8,32.8-4c-0.1,2.3-0.2,4.7-0.2,7
		c-26.6,2.5-53.1,6.6-79.5,10.2c-35.9,5-71.8,10.2-107.6,16.2c-9.5,1.6-19.2,2.9-28.6,5.3C502,166.3,501.9,164,502,161.7z
		 M531.6,214c-0.6,0.1-1.2,0.4-1.7,0.7c-1.2-0.7-2.4-0.8-3.6-0.5c-0.5-0.9-1.2-1.6-2.1-2.2c3.8-0.7,7.7-1.3,11.5-1.9
		c16-2.7,32-5.2,48.1-7.7c36.7-5.6,73.4-10.8,110.2-15.5c11.7-1.5,23.4-3.1,35.2-4.2c-51.2,8.1-102.4,16.2-153.6,24.3
		C561,209.4,546.3,211.7,531.6,214z M738.2,185.4c-0.1-0.2-0.1-0.4-0.2-0.5c0.1,0.1,0.2,0.2,0.4,0.3
		C738.3,185.2,738.3,185.3,738.2,185.4z M647.3,189.2c-35.9,5-71.8,10.2-107.6,16.2c-7,1.2-14.1,2.2-21.1,3.6
		c-1.6-2.1-3.1-4.2-4.5-6.4c6.4-1.4,13-2.3,19.4-3.4c16-2.7,32-5.2,48.1-7.7c36.7-5.6,73.4-10.8,110.2-15.5
		c11.8-1.5,23.5-3.1,35.3-4.2c1.4,2.4,3,4.7,4.7,6.8C703.6,181,675.4,185.3,647.3,189.2z M645.1,178.1c-35.9,5-71.8,10.2-107.6,16.2
		c-8.4,1.4-17.1,2.6-25.5,4.5c-1.3-2.3-2.5-4.7-3.6-7.1c6.8-1.5,13.9-2.6,20.7-3.7c16-2.7,32-5.2,48.1-7.7
		c36.7-5.6,73.4-10.8,110.2-15.5c11.5-1.5,23-3,34.5-4.1c0.3,0.9,0.7,1.8,1,2.7c0.6,1.5,1.3,3,2.1,4.5
		C698.4,170.4,671.7,174.4,645.1,178.1z M640.6,158.2c-35.9,5-71.8,10.2-107.6,16.2c-9.5,1.6-19.4,2.9-28.8,5.3
		c-0.5-1.9-0.9-3.9-1.3-5.8c-0.1-0.4-0.1-0.8-0.2-1.2c7.9-2,16.1-3.2,24.1-4.6c16-2.7,32-5.2,48.1-7.7
		c36.7-5.6,73.4-10.8,110.2-15.5c10.9-1.4,21.8-2.8,32.8-4c0.2,2.4,0.4,4.8,0.8,7.1C692.7,150.6,666.6,154.6,640.6,158.2z
		 M720.7,112.6c-27.4,2.4-54.7,6.6-81.9,10.5c-34.8,4.9-69.6,10-104.3,15.9c-10.2,1.7-20.7,3.1-30.6,5.9c0.7-3.1,1.6-6.2,2.7-9.2
		c8.7-2.6,18-3.8,27-5.3c16-2.7,32-5.2,48.1-7.7c36.7-5.6,73.4-10.8,110.2-15.5c10.5-1.3,21-2.7,31.5-3.8
		C722.3,106.4,721.4,109.5,720.7,112.6z M514.5,220c0.1,0.2,0.3,0.3,0.4,0.5c1,1.1,2.4,1.5,3.8,1.4c-4.2,4.9-8.7,9.3-13.1,14.1
		c-5.5,5.9-8.9,12.8-11.8,20.2c-6,15.7-5.5,32.4-0.2,48.3c2.4,7,5.4,13.8,8.7,20.4c-0.6-0.1-1.2-0.3-1.8-0.4
		c-1.1-0.3-2.2-0.5-3.3-0.7c-5.8-13.2-9.2-27.7-10.4-42c-1.3-15.5-0.2-31.7,5.9-46.2c1.4-3.4,3.2-6.7,5.2-9.8c1.6-2.5,4-4.9,4.9-7.8
		C506.8,218.6,510.7,219.3,514.5,220z M481.8,517.1L481.8,517.1c10-3,19.9-6.2,29.8-9.3c18.5-5.8,36.9-11.7,55.3-17.6
		c21.8-6.9,43.5-13.8,65.3-20.6c20.2-6.3,40.4-12.6,60.6-18.7c12.8-3.9,25.6-7.8,38.6-11.1c-0.1,0.4-0.1,0.7-0.2,1.1
		c-0.3,1.9-0.6,3.8-0.8,5.7c-12.2,2.1-24.2,5.8-36.1,9.3c-19.8,5.7-39.5,11.8-59.1,18c-21.9,6.9-43.7,13.9-65.5,21
		c-19.1,6.2-38.2,12.5-57.3,18.7c-11.2,3.7-22.3,7.4-33.6,10.9c-0.6,0.2-1.2,0.4-1.8,0.5c-0.4,0.1-0.7,0.3-0.9,0.6
		c1-3.1,2.1-6.1,3.4-9.1C480.1,517,480.8,517.4,481.8,517.1z M474.4,533.1c0.4-2,0.9-4,1.4-6c0.1,1.1,1.1,2.1,2.5,1.7v0
		c9.9-3,19.7-6.3,29.6-9.5c18.4-6,36.8-12,55.2-18c21.7-7.1,43.5-14.1,65.3-21c20.2-6.4,40.4-12.7,60.7-18.7
		c13.4-3.9,26.9-8.1,40.6-10.8c0.2,0,0.3-0.1,0.5-0.1c-0.2,2.9-0.2,5.7,0,8.6c-0.3-0.1-0.6-0.1-0.9,0c-12.5,2-24.9,5.9-37.1,9.5
		c-19.8,5.7-39.5,11.8-59.1,18c-21.9,6.9-43.7,13.9-65.5,21c-19.1,6.2-38.2,12.5-57.3,18.7c-11.2,3.7-22.3,7.4-33.6,10.9
		c-0.6,0.2-1.2,0.4-1.8,0.5c-0.7,0.2-1.2,0.7-1.3,1.3C473.7,537.1,474,535.1,474.4,533.1z M732.4,435.3c-11.5,2.8-22.8,6.3-34.1,9.7
		c-19.7,5.9-39.3,12-59,18.1c-21.9,6.8-43.7,13.7-65.5,20.6c-19.2,6.1-38.3,12.2-57.5,18.2c-11.3,3.6-22.5,7.2-33.8,10.7
		c-0.4,0.1-0.9,0.3-1.3,0.4c1.9-4,4.1-7.8,6.4-11.5c9.5-2.9,19-6.1,28.4-9.2c18.4-6,36.8-12,55.2-18c21.7-7.1,43.5-14.1,65.3-21
		c20.2-6.4,40.4-12.7,60.7-18.7c12.7-3.7,25.6-7.6,38.6-10.4C734.4,427.9,733.3,431.6,732.4,435.3z M737.8,419.8
		c-11.9,2.1-23.6,5.8-35.1,9.1c-19.8,5.7-39.5,11.8-59.1,18c-21.9,6.9-43.7,13.9-65.5,21c-19.1,6.2-38.2,12.5-57.3,18.7
		c-9.9,3.2-19.7,6.5-29.6,9.6c0.8-1.1,1.6-2.2,2.4-3.4c0.9-1.2,0.9-2.8,0.4-4.2c34-9.1,67.5-19.7,101.1-30.3
		c35.3-11.2,70.5-22.7,105.9-33.8c13.7-4.3,27.3-8.5,41.1-12.4C740.4,414.6,739,417.1,737.8,419.8z M731.5,393.6
		c-12.2,2-24.4,5-36.5,7.8c-19.1,4.5-38.2,9.2-57.2,14c-21.3,5.4-42.6,10.8-63.8,16.3c-18.5,4.8-36.9,9.6-55.3,14.5
		c-10.7,2.8-21.3,5.6-31.9,8.7c-0.4-3-0.8-6-1.1-9c8.7-2.5,17.5-4.5,26.2-6.7c17.8-4.4,35.6-8.7,53.4-13c21.1-5,42.2-10,63.4-14.9
		c19.6-4.5,39.2-9,58.8-13.4c13.2-2.9,26.5-5.9,39.8-8.3c0.7-0.1,1.4-0.2,2.1-0.3C730.1,390.9,730.8,392.3,731.5,393.6
		C731.6,393.6,731.6,393.6,731.5,393.6z M725.2,314.2c-11.3,1.9-22.5,4.4-33.7,6.7c-18.2,3.9-36.3,8-54.5,12.1
		c-20.1,4.6-40.2,9.2-60.2,13.9c-17.5,4.1-35,8.3-52.5,12.5c-9.2,2.2-18.4,4.4-27.5,6.9c1.2-2.7,2.6-5.3,4-7.9
		c8.7-2.5,17.6-4.6,26.3-6.7c16.8-4.1,33.7-8.1,50.6-12.1c20-4.7,40-9.3,60-13.9c18.6-4.2,37.2-8.4,55.9-12.5
		c11.7-2.5,23.4-5.1,35.2-7.2C727.5,308.7,726.2,311.4,725.2,314.2z M219.7,25.3c31.3-4,62.7-7.4,94.1-10.3
		c19.3-1.8,38.5-3.3,57.8-4.7c8.7,0.9,17.3,2,26,3.1c4.8,0.6,9.4,1.3,14.8,2c5.6,0.8,11.3,1.6,16.9,2.4c25.7,3.8,51.3,7.9,76.8,12.2
		c28,4.7,56,9.5,84,14.5c27,4.8,54.1,9.7,81.1,14.7c18.5,3.4,36.9,7,55.4,10.5c-21.6,3.3-43.4,5.8-65.1,8.4
		c-31,3.7-62.1,7.1-93.1,11.4c-16,2.2-32,4.7-47.9,7.7c-0.2,0-0.5,0.1-0.7,0.2c-50.3-9.7-101-17.3-151.7-24.5
		c-54.3-7.7-108.8-14.8-163.2-21.9c-25.5-3.3-51-6.7-76.5-10.2c1.1-0.2,2.2-0.4,3.2-0.5c2-0.3,3.9-1.3,4.7-3
		C164,32.9,191.8,28.8,219.7,25.3z M85.4,110.7C85.4,110.7,85.4,110.7,85.4,110.7C85.4,110.7,85.4,110.7,85.4,110.7z M101.4,143.8
		L101.4,143.8c-5.9-5.6-10.3-12.8-12.9-20.2c-1.5-4.2-2.5-8.5-3.1-12.8c0-0.1,0-0.1,0-0.2c0-0.2-0.1-0.4-0.1-0.6
		c-0.1-0.6-0.1-1.2-0.2-1.8c-0.1-1.1-0.2-2.3-0.2-3.4c-0.1-2.2-0.1-4.4,0-6.6c0.2-4.9,0.6-7.9,1.6-12.6c0.5-2.2,1.1-4.5,1.8-6.7
		c0.3-1,0.7-2,1-3c0.2-0.5,0.4-1,0.6-1.5c0.1-0.2,0.4-1,0.4-1.1c3.6-8.4,8.2-15.1,14.9-21c3.5-3.1,7.8-5.8,12.3-7.8
		c0.4,0.7,1,1.2,1.8,1.4c51.5,7.1,103,13.7,154.5,20.5c54.3,7.2,108.5,14.5,162.6,23c21.9,3.4,43.7,7.1,65.5,11
		c-19,24-24.8,57.3-16.1,86.6c2,6.8,4.8,13.3,8.4,19.4c-12.6-2.1-25.3-4.1-37.9-6.2c-21.7-3.5-43.5-6.8-65.2-10.2
		c-25-3.9-49.9-7.7-74.9-11.4c-25.5-3.9-51-7.7-76.5-11.5c-23.3-3.4-46.5-6.9-69.8-10.2c-18.2-2.6-36.5-5.3-54.8-7.8
		c-4-0.6-8.1-1.1-12.1-1.7C103,146.1,102.5,144.9,101.4,143.8z M54.6,237c-1.1-1-2.1-2.2-3.1-3.3c0,0-0.1-0.1-0.1-0.1
		c0-0.1-0.1-0.1-0.1-0.2c-0.2-0.2-0.4-0.5-0.5-0.8c-0.3-0.5-0.7-1-1-1.6c-0.8-1.3-1.5-2.7-2.2-4.1c0-0.1-0.1-0.2-0.1-0.3
		c-0.1-0.2-0.2-0.4-0.3-0.6c-0.3-0.7-0.5-1.5-0.8-2.2c-0.4-1.3-0.8-2.7-1.1-4.1c-0.2-0.8-0.3-1.5-0.5-2.3c0-0.2-0.2-1-0.2-1.3
		c-0.2-1.4-0.3-2.9-0.4-4.3c-0.1-3-0.1-6,0.2-9c0.1-0.7,0.1-1.5,0.2-2.2c0-0.3,0.2-1.6,0.2-1.6c0.2-1.4,0.4-2.9,0.7-4.3
		c1.1-5.5,2.6-10.9,4.6-16.2c0.2-0.7,0.5-1.3,0.8-2c0.1-0.3,0.6-1.5,0.4-0.9c0.5-1.1,0.9-2.1,1.4-3.1c1.8-3.8,4.1-7.3,7.1-10.3
		c5.4-5.2,13.1-8.1,20.5-7.4c3.4,0.3,6.8,0.7,10.2,1.2c2.6,0.3,5.2,0.7,7.8,1c1.5,0.2,3,0.4,4.5,0.6l1.2,0.2c1.3,0.2-0.8-0.1,0,0
		c0.9,0.1,1.8,0.2,2.7,0.4c17.1,2.3,34.2,4.8,51.2,7.2c22.3,3.2,44.6,6.5,66.9,9.8c25,3.7,50,7.4,75,11.2
		c24.9,3.8,49.7,7.5,74.6,11.3c22.2,3.4,44.5,6.9,66.7,10.4c16.9,2.7,33.7,5.3,50.5,8.1c2.3,0.4,4.7,0.8,7,1.1
		c-0.5,1.3-1.6,2.6-2.4,3.7c-2.2,3-4.2,6.2-5.8,9.6c-6.9,14.3-8.9,30.6-8.1,46.4c0.8,15.6,4.1,31.3,10,45.8
		c-1.2-0.3-2.4-0.5-3.5-0.8c-13.2-2.8-26.5-5.4-39.7-8c-18.7-3.7-37.5-7.3-56.2-10.9c-22.1-4.2-44.2-8.4-66.4-12.5
		c-23.1-4.3-46.3-8.6-69.4-12.8c-22-4-44-8-66-11.9c-18.7-3.3-37.5-6.6-56.3-9.7c-13.2-2.2-26.3-4.4-39.5-6.2
		c-4.2-0.6-8.4-1.2-12.6-1.5c-1-0.1-2-0.2-2.9-0.2c-0.6-1-1.6-1.7-2.8-1.9l0,0c-7.4-1-13.7-3-19.6-7C56.5,238.7,55.9,238.2,54.6,237
		z M79.6,258.3C80,258.2,80.1,258.2,79.6,258.3L79.6,258.3z M57.3,370.4c-7.2-9.9-11.4-20.3-13.4-32.4c-0.4-2.5-0.7-4.7-0.9-7.8
		c-0.2-3-0.2-6-0.1-8.9c0.2-6.3,0.8-10.6,2.2-16.7c0.7-2.8,1.5-5.6,2.4-8.4c1-3,1.8-4.8,2.9-7.2c1.2-2.5,2.5-5,3.9-7.5
		c0.7-1.1,1.4-2.2,2.1-3.3c0.4-0.5,0.7-1.1,1.1-1.6c0.2-0.3,1.4-1.9,0.9-1.3c1.7-2.1,3.5-4.2,5.4-6.1c0.9-0.9,1.8-1.8,2.8-2.6
		c0.5-0.4,1-0.8,1.4-1.2c0.2-0.2,0.5-0.4,0.7-0.6c0.1-0.1,0.2-0.1,0.2-0.2c0,0,0,0,0,0c2.1-1.6,4.3-3.1,6.7-4.3
		c1.1-0.6,2.2-1.2,3.3-1.7c0.1,0,0.2-0.1,0.2-0.1c0.3,0,0.6,0,0.9,0c1.2,0,2.5,0.2,3.7,0.3c1.8,0.2,3.6,0.4,5.4,0.6
		c0.5,0.1,1,0.1,1.5,0.2c0.2,0,0.4,0.1,0.7,0.1c1.2,0.2,2.4,0.3,3.6,0.5c5.9,0.8,11.9,1.8,17.8,2.7c4.4,0.7,8.7,1.4,13.1,2.1
		c-21.3,33.3-29.1,75.2-20.4,113.8c1.6,7,3.9,13.9,7.7,19.9c-4.6-1-9.2-2-13.7-2.9c-4.6-1-9.2-1.9-13.8-2.9c1,0.2-0.9-0.4-1.3-0.6
		c-0.8-0.3-1.5-0.7-2.2-1.1c-1.6-0.8-3.2-1.7-4.8-2.7c-2.7-1.6-5.6-3.6-7.6-5.2C65.2,379.5,60.4,374.6,57.3,370.4z M314.4,542.8
		c-53.5-11.2-106.9-23.7-159.6-38c-28.4-7.7-56.7-16.1-84.7-25.1c-0.2-0.8-0.6-1.5-1.3-2.2v0C59.4,467.9,54,455,53.9,442
		c0-3.6,0.2-5.8,0.8-8.7c0.3-1.5,0.7-2.9,1.1-4.3c0.2-0.8,0.5-1.6,0.8-2.3c0.1-0.2,0.2-0.4,0.3-0.7c0.1-0.1,0.3-0.7,0.4-0.8
		c0.7-1.4,1.4-2.8,2.2-4.1c0.4-0.6,0.8-1.2,1.2-1.8c0.2-0.3,0.4-0.5,0.6-0.8c0.2-0.3,0.2-0.3,0.2-0.3c0,0,0.1-0.1,0.4-0.4
		c1-1.1,2-2.2,3.1-3.2c1.4-1.3,2.2-1.9,3.3-2.7c6.7-4.6,14.2-6.5,22.3-6.8c0.6,0,1.1-0.1,1.6-0.3c6.3,1.3,12.5,2.7,18.8,4
		c15.4,3.3,30.7,6.6,46.1,9.9c19.9,4.2,39.8,8.5,59.7,12.8c22.2,4.8,44.4,9.5,66.6,14.2c22.3,4.8,44.7,9.5,67,14.3
		c20,4.3,40.1,8.6,60.1,12.9c15.5,3.3,31.1,6.6,46.6,10c3.7,0.8,7.3,1.6,11,2.4c-7.9,6.2-11.6,17-13.5,26.8c-2.9,15-4.1,31.3-1,46.4
		c0.9,4.2,2.2,8.3,4,12.2C409.8,561.8,362,552.8,314.4,542.8z M741.7,492.4c-29.7,10.9-59.6,21.4-89.7,31.3
		c-35.5,11.8-71.2,22.9-107.1,33.3c-20.2,5.9-40.4,11.5-60.6,17c-0.8,0.2-1.5,0.6-2,1c-0.1-0.5-0.3-1-0.6-1.5
		c-6.1-10.3-9-21.8-8.2-33.5c0.1,1.1,1.1,2.1,2.5,1.7l0,0c9.9-3,19.7-6.3,29.6-9.5c18.4-6,36.8-12,55.2-18
		c21.7-7.1,43.5-14.1,65.3-21c20.2-6.4,40.4-12.7,60.7-18.7c13.4-3.9,26.9-8.1,40.6-10.8c1-0.2,2-0.4,2.9-0.5c0.1,0,0.1,0,0.2,0
		c0.2,1.9,0.5,3.7,0.8,5.5c-0.3-0.1-0.5-0.1-0.9,0c-12.5,2-24.9,5.9-37.1,9.5c-19.8,5.7-39.5,11.8-59.1,18
		c-21.9,6.9-43.7,13.9-65.5,21c-19.1,6.2-38.2,12.5-57.3,18.7c-11.2,3.7-22.3,7.4-33.6,10.9c-0.6,0.2-1.2,0.4-1.8,0.5
		c-2.5,0.7-1.4,4.7,1.1,3.9v0c9.9-3,19.7-6.3,29.6-9.5c18.4-6,36.8-12,55.2-18c21.7-7.1,43.5-14.1,65.3-21
		c20.2-6.4,40.4-12.7,60.7-18.7c13.4-3.9,26.9-8.1,40.6-10.8c1-0.2,2-0.4,2.9-0.5c0.2,0,0.4-0.1,0.6-0.2c0.9,3.6,2.1,7.1,3.6,10.4
		C737.2,486.3,739.2,489.5,741.7,492.4z M731.7,301.4c-11.1,1.9-22.1,4.3-33.2,6.7c-18.2,3.9-36.3,8-54.5,12.1
		c-20.1,4.6-40.2,9.2-60.2,13.9c-17.5,4.1-35,8.3-52.5,12.5c-9.2,2.2-18.4,4.4-27.5,6.9c2.3-3.5,4.9-6.9,7.7-10.1
		c33.4-9.6,67.5-16.7,101.5-24C650,311.5,687,304,724,296.6c4.7-0.9,9.3-1.9,14-2.8C735.6,296.1,733.5,298.7,731.7,301.4z"/>
	<path class="st0" d="M308.1,153.8l125.2,17.2c13.3,1.8,25.7-7.5,27.5-20.9c1.8-13.4-7.5-25.7-20.9-27.5l-125.2-17.2
		c-13.4-1.8-25.7,7.5-27.5,20.9C285.4,139.6,294.8,151.9,308.1,153.8z"/>
	<path class="st0" d="M108.3,232.5l124.9,19.3c13.3,2,25.8-7.1,27.8-20.4c2-13.3-7.1-25.8-20.4-27.8l-124.9-19.3
		c-13.3-2.1-25.8,7.1-27.8,20.4C85.8,218,94.9,230.4,108.3,232.5z"/>
	<path class="st0" d="M507.8,552.1c18.4-6,36.8-12,55.2-18c21.7-7.1,43.5-14.1,65.3-21c20.2-6.4,40.4-12.7,60.7-18.7
		c13.4-3.9,26.9-8.1,40.6-10.8c1-0.2,2-0.4,2.9-0.5c2.6-0.4,1.5-4.3-1.1-3.9c-12.5,2-24.9,5.9-37.1,9.5c-19.8,5.7-39.5,11.8-59.1,18
		c-21.9,6.9-43.7,13.9-65.5,21c-19.1,6.2-38.2,12.5-57.3,18.7c-11.2,3.7-22.3,7.4-33.6,10.9c-0.6,0.2-1.2,0.4-1.8,0.5
		c-2.5,0.7-1.4,4.7,1.1,3.9v0C488.2,558.7,498,555.4,507.8,552.1z"/>
	<path class="st0" d="M640,514.8c-21.9,6.9-43.7,13.9-65.5,21c-19.1,6.2-38.2,12.5-57.3,18.7c-11.2,3.7-22.3,7.4-33.6,10.9
		c-0.6,0.2-1.2,0.4-1.8,0.5c-2.5,0.7-1.4,4.7,1.1,3.9v0c9.9-3,19.7-6.3,29.6-9.5c18.4-6,36.8-12,55.2-18c21.7-7.1,43.5-14.1,65.3-21
		c20.2-6.4,40.4-12.7,60.7-18.7c13.4-3.9,26.9-8.1,40.6-10.8c1-0.2,2-0.4,2.9-0.5c2.6-0.4,1.5-4.3-1.1-3.9
		c-12.5,2-24.9,5.9-37.1,9.5C679.3,502.6,659.7,508.7,640,514.8z"/>
	
		<ellipse transform="matrix(0.1761 -0.9844 0.9844 0.1761 -350.9324 479.796)" class="st0" cx="111.1" cy="449.5" rx="25.4" ry="27.4"/>
	<path class="st0" d="M12.6,417.5L12.6,417.5c-4.8,8.3-5.9,18.6-2.9,27.7c1,3,5.8,1.7,4.8-1.3c-2.6-7.9-1.8-16.6,2.4-23.9
		C18.5,417.2,14.2,414.7,12.6,417.5z"/>
	<path class="st0" d="M15.7,278C8,290.4,3,304.5,1,318.9c-2,14.6-1.1,29.6,2.8,43.8c2.2,8,5.4,15.7,9.4,22.9
		c1.6,2.8,5.9,0.3,4.3-2.5c-6.9-12.2-11-25.8-12.2-39.7c-1.2-14,0.3-28.1,4.6-41.4c2.5-7.5,5.8-14.7,10-21.4v0
		C21.8,277.8,17.4,275.2,15.7,278z"/>
	<path class="st0" d="M809.9,79.1c-7.5,28.4-13.6,34.5-42,42c28.4,7.5,34.5,13.6,42,42c7.5-28.4,13.6-34.5,42-42
		C823.5,113.6,817.4,107.5,809.9,79.1z"/>
	<path class="st0" d="M873.1,65.1c-3.5,13.2-6.3,16-19.5,19.5c13.2,3.5,16,6.3,19.5,19.5c3.5-13.2,6.3-16,19.5-19.5
		C879.5,81.1,876.6,78.3,873.1,65.1z"/>
	<path class="st0" d="M872.8,143.3h-6.2v-5.7c0-2-3-2-3,0v5.7H857c-2,0-2,3,0,3h6.6v6.6c0,2,3,2,3,0v-6.6h6.2
		C874.8,146.3,874.8,143.3,872.8,143.3z"/>
	<path class="st0" d="M821.8,37.1h6.6v6.6c0,2,3,2,3,0v-6.6h6.2c2,0,2-3,0-3h-6.2v-5.7c0-2-3-2-3,0v5.7h-6.6
		C819.8,34.1,819.8,37.1,821.8,37.1z"/>
</g>
</svg>
